<svg xmlns="http://www.w3.org/2000/svg" version="1.1" xmlns:xlink="http://www.w3.org/1999/xlink" xmlns:svgjs="http://svgjs.dev/svgjs" width="1000" height="330" viewBox="0 0 1000 330"><g transform="matrix(1,0,0,1,-0.6060606060606233,-0.4498112749372183)"><svg viewBox="0 0 396 131" data-background-color="#ffffff" preserveAspectRatio="xMidYMid meet" height="330" width="1000" xmlns="http://www.w3.org/2000/svg" xmlns:xlink="http://www.w3.org/1999/xlink"><g id="tight-bounds" transform="matrix(1,0,0,1,0.2400000000000091,0.17856341922026786)"><svg viewBox="0 0 395.52 130.6428751352744" height="130.6428751352744" width="395.52"><g><svg viewBox="0 0 395.52 130.6428751352744" height="130.6428751352744" width="395.52"><g><svg viewBox="0 0 395.52 130.6428751352744" height="130.6428751352744" width="395.52"><g id="textblocktransform"><svg viewBox="0 0 395.52 130.6428751352744" height="130.6428751352744" width="395.52" id="textblock"><g><svg viewBox="0 0 395.52 130.6428751352744" height="130.6428751352744" width="395.52"><g transform="matrix(1,0,0,1,0,0)"><svg width="395.52" viewBox="1.369999885559082 -42.189998626708984 285.1500244140625 90.9000015258789" height="130.6428751352744" data-palette-color="#ffffff"><svg></svg><svg></svg><g class="wordmark-text-0" data-fill-palette-color="primary" id="text-0"><path xmlns="http://www.w3.org/2000/svg" d="M16.5-27.05c-1.887 1.887-2.83 4.167-2.83 6.84 0 2.667 0.943 4.943 2.83 6.83 1.893 1.887 4.173 2.83 6.84 2.83 2.667 0 4.947-0.943 6.84-2.83 1.887-1.887 2.83-4.163 2.83-6.83 0-2.673-0.943-4.953-2.83-6.84-1.893-1.887-4.173-2.83-6.84-2.83-2.667 0-4.947 0.943-6.84 2.83zM12.82-15.78c-0.607-1.413-0.91-2.89-0.91-4.43 0-1.547 0.303-3.027 0.91-4.44 0.6-1.407 1.413-2.623 2.44-3.65 1.027-1.02 2.243-1.833 3.65-2.44 1.407-0.6 2.883-0.9 4.43-0.9 1.547 0 3.023 0.3 4.43 0.9 1.407 0.607 2.623 1.42 3.65 2.44 1.027 1.027 1.84 2.243 2.44 3.65 0.607 1.413 0.91 2.893 0.91 4.44 0 1.54-0.303 3.017-0.91 4.43-0.6 1.407-1.413 2.623-2.44 3.65-1.027 1.02-2.243 1.833-3.65 2.44-1.407 0.6-2.883 0.9-4.43 0.9-1.547 0-3.023-0.3-4.43-0.9-1.407-0.607-2.623-1.42-3.65-2.44-1.027-1.027-1.84-2.243-2.44-3.65zM11.93-26.83c-1.18 2.02-1.77 4.227-1.77 6.62 0 2.387 0.59 4.59 1.77 6.61 1.18 2.02 2.777 3.62 4.79 4.8 2.02 1.18 4.227 1.77 6.62 1.77 2.393 0 4.6-0.59 6.62-1.77 2.013-1.18 3.61-2.78 4.79-4.8 1.18-2.02 1.77-4.223 1.77-6.61 0-2.393-0.59-4.6-1.77-6.62-1.18-2.02-2.777-3.62-4.79-4.8-2.02-1.18-4.227-1.77-6.62-1.77-2.393 0-4.6 0.59-6.62 1.77-2.013 1.18-3.61 2.78-4.79 4.8zM10.4-12.72c-1.333-2.293-2-4.79-2-7.49 0-2.707 0.667-5.207 2-7.5 1.333-2.293 3.147-4.107 5.44-5.44 2.3-1.34 4.8-2.01 7.5-2.01 2.7 0 5.197 0.67 7.49 2.01 2.3 1.333 4.117 3.147 5.45 5.44 1.333 2.293 2 4.793 2 7.5 0 2.7-0.667 5.197-2 7.49-1.333 2.293-3.15 4.107-5.45 5.44-2.293 1.34-4.79 2.01-7.49 2.01-2.7 0-5.2-0.67-7.5-2.01-2.293-1.333-4.107-3.147-5.44-5.44zM7.96-26.71c-0.88 2.067-1.32 4.233-1.32 6.5 0 2.26 0.44 4.423 1.32 6.49 0.88 2.067 2.063 3.843 3.55 5.33 1.493 1.493 3.273 2.68 5.34 3.56 2.067 0.873 4.23 1.31 6.49 1.31 2.26 0 4.423-0.437 6.49-1.31 2.067-0.88 3.847-2.067 5.34-3.56 1.487-1.487 2.67-3.263 3.55-5.33 0.88-2.067 1.32-4.23 1.32-6.49 0-2.267-0.44-4.433-1.32-6.5-0.88-2.067-2.063-3.843-3.55-5.33-1.493-1.493-3.273-2.68-5.34-3.56-2.067-0.873-4.23-1.31-6.49-1.31-2.26 0-4.423 0.437-6.49 1.31-2.067 0.88-3.847 2.067-5.34 3.56-1.487 1.487-2.67 3.263-3.55 5.33zM7.36-10.96c-1.653-2.833-2.48-5.917-2.48-9.25 0-3.34 0.827-6.427 2.48-9.26 1.653-2.833 3.897-5.073 6.73-6.72 2.827-1.653 5.91-2.48 9.25-2.48 3.333 0 6.417 0.827 9.25 2.48 2.833 1.647 5.077 3.887 6.73 6.72 1.653 2.833 2.48 5.92 2.48 9.26 0 3.333-0.827 6.417-2.48 9.25-1.653 2.833-3.897 5.073-6.73 6.72-2.833 1.653-5.917 2.48-9.25 2.48-3.34 0-6.423-0.827-9.25-2.48-2.833-1.647-5.077-3.887-6.73-6.72zM4.72-28.06c-1.06 2.493-1.59 5.11-1.59 7.85 0 2.733 0.53 5.347 1.59 7.84 1.067 2.5 2.503 4.653 4.31 6.46 1.807 1.807 3.96 3.243 6.46 4.31 2.5 1.067 5.117 1.6 7.85 1.6 2.733 0 5.35-0.533 7.85-1.6 2.5-1.067 4.653-2.503 6.46-4.31 1.807-1.807 3.243-3.96 4.31-6.46 1.06-2.493 1.59-5.107 1.59-7.84 0-2.74-0.53-5.357-1.59-7.85-1.067-2.5-2.503-4.653-4.31-6.46-1.807-1.807-3.96-3.243-6.46-4.31-2.5-1.067-5.117-1.6-7.85-1.6-2.733 0-5.35 0.533-7.85 1.6-2.5 1.067-4.653 2.503-6.46 4.31-1.807 1.807-3.243 3.96-4.31 6.46zM3.11-11.68c-1.16-2.713-1.74-5.557-1.74-8.53 0-2.98 0.58-5.827 1.74-8.54 1.167-2.707 2.73-5.04 4.69-7 1.96-1.967 4.297-3.53 7.01-4.69 2.707-1.167 5.55-1.75 8.53-1.75 2.98 0 5.823 0.583 8.53 1.75 2.713 1.16 5.05 2.723 7.01 4.69 1.96 1.96 3.523 4.293 4.69 7 1.16 2.713 1.74 5.56 1.74 8.54 0 2.973-0.58 5.817-1.74 8.53-1.167 2.707-2.73 5.04-4.69 7-1.96 1.967-4.297 3.53-7.01 4.69-2.707 1.167-5.55 1.75-8.53 1.75-2.98 0-5.823-0.583-8.53-1.75-2.713-1.16-5.05-2.723-7.01-4.69-1.96-1.96-3.523-4.293-4.69-7zM78.05 0v-14.75l1.76-3.32v18.07zM81.57 0v-21.48l1.76-3.32v24.8zM85.08 0v-28.13l1.76-3.34v31.47zM86.38-40.43l-13.09 24.85-1-1.83 12.11-23.02zM82.4-40.43l-11.14 21.02-1.02-1.85 10.16-19.17zM59.5 0v-17.87l1.75 3.32v14.55zM55.98 0v-24.56l1.76 3.32v21.24zM52.47 0v-31.25l1.75 3.34v27.91zM50.93-40.43l15.74 29.88h-1.97l-13.99-26.53v37.08h-1.76v-40.43zM54.93-40.43l15.72 29.88h-2l-15.72-29.88zM88.6 0v-37.08l-13.99 26.53h-2l-15.7-29.88h1.98l14.74 28.03 14.72-28.03h2.01v40.43z" fill="#ffffff" fill-rule="nonzero" stroke="none" stroke-width="1" stroke-linecap="butt" stroke-linejoin="miter" stroke-miterlimit="10" stroke-dasharray="" stroke-dashoffset="0" font-family="none" font-weight="none" font-size="none" text-anchor="none" style="mix-blend-mode: normal" data-fill-palette-color="primary" opacity="1"></path><path xmlns="http://www.w3.org/2000/svg" d="M24.8 36.4h-11.98v-19.33c0 0 3.993 0 11.98 0v0c1.94 0 3.607 0.947 5 2.84 1.387 1.9 2.08 4.177 2.08 6.83v0c0 2.667-0.693 4.943-2.08 6.83-1.393 1.887-3.06 2.83-5 2.83zM14.58 18.82v15.83h10.22c1.453 0 2.697-0.773 3.73-2.32 1.033-1.547 1.55-3.41 1.55-5.59v0c0-2.2-0.517-4.07-1.55-5.61-1.033-1.54-2.277-2.31-3.73-2.31v0zM11.06 15.31v22.85h13.74c2.427 0 4.517-1.12 6.27-3.36 1.747-2.233 2.62-4.92 2.62-8.06v0c0-2.073-0.403-3.987-1.21-5.74-0.807-1.76-1.887-3.147-3.24-4.16-1.36-1.02-2.84-1.53-4.44-1.53v0zM24.8 39.92h-15.5v-26.37h15.5c1.907 0 3.683 0.587 5.33 1.76 1.64 1.173 2.947 2.773 3.92 4.8 0.967 2.027 1.45 4.237 1.45 6.63v0c0 2.373-0.483 4.577-1.45 6.61-0.973 2.033-2.28 3.637-3.92 4.81-1.647 1.173-3.423 1.76-5.33 1.76zM7.54 11.79v29.89h17.26c2.233 0 4.307-0.67 6.22-2.01 1.913-1.333 3.44-3.147 4.58-5.44 1.133-2.293 1.7-4.79 1.7-7.49v0c0-2.687-0.567-5.183-1.7-7.49-1.14-2.3-2.67-4.117-4.59-5.45-1.92-1.34-3.99-2.01-6.21-2.01v0zM24.8 43.43h-19.01v-33.39h19.01c2.54 0 4.91 0.743 7.11 2.23 2.2 1.487 3.95 3.517 5.25 6.09 1.3 2.573 1.95 5.367 1.95 8.38 0 3.007-0.65 5.797-1.95 8.37-1.3 2.573-3.05 4.603-5.25 6.09-2.2 1.487-4.57 2.23-7.11 2.23zM4.03 8.28v36.91h20.77c2.133 0 4.193-0.487 6.18-1.46 1.987-0.98 3.703-2.29 5.15-3.93 1.453-1.647 2.613-3.613 3.48-5.9 0.873-2.287 1.31-4.673 1.31-7.16 0-2.493-0.437-4.88-1.31-7.16-0.867-2.28-2.027-4.243-3.48-5.89-1.447-1.653-3.163-2.97-5.15-3.95-1.987-0.973-4.047-1.46-6.18-1.46v0zM24.8 46.95v0h-22.53v-40.43h22.53c3.18 0 6.143 0.903 8.89 2.71 2.753 1.807 4.947 4.263 6.58 7.37 1.633 3.113 2.45 6.493 2.45 10.14v0c0 2.733-0.483 5.347-1.45 7.84-0.967 2.5-2.257 4.653-3.87 6.46-1.607 1.807-3.513 3.243-5.72 4.31-2.207 1.067-4.5 1.6-6.88 1.6zM85.25 46.95v-40.43h1.76v40.43zM46.58 46.95v-40.43h1.76v40.43zM81.74 46.95v-40.43h1.76v40.43zM78.22 46.95v-40.43h1.76v40.43zM74.71 22.32v-15.8h1.75v40.43h-1.75v-15.84h-15.82v15.84h-1.76v-40.43h1.76v15.8zM53.61 46.95v-40.43h1.76v40.43zM50.1 46.95v-40.43h1.76v40.43zM58.89 29.35h15.82v-1.76h-15.82zM58.89 25.83h15.82v-1.76h-15.82zM105.88 19.9c-1.887 1.887-2.83 4.167-2.83 6.84 0 2.667 0.943 4.943 2.83 6.83 1.893 1.887 4.173 2.83 6.84 2.83 2.667 0 4.947-0.943 6.84-2.83 1.887-1.887 2.83-4.163 2.83-6.83 0-2.673-0.943-4.953-2.83-6.84-1.893-1.887-4.173-2.83-6.84-2.83-2.667 0-4.947 0.943-6.84 2.83zM102.2 31.17c-0.607-1.413-0.91-2.89-0.91-4.43 0-1.547 0.303-3.027 0.91-4.44 0.6-1.407 1.413-2.623 2.44-3.65 1.027-1.02 2.243-1.833 3.65-2.44 1.407-0.6 2.883-0.9 4.43-0.9 1.547 0 3.023 0.3 4.43 0.9 1.407 0.607 2.623 1.42 3.65 2.44 1.027 1.027 1.84 2.243 2.44 3.65 0.607 1.413 0.91 2.893 0.91 4.44 0 1.54-0.303 3.017-0.91 4.43-0.6 1.407-1.413 2.623-2.44 3.65-1.027 1.02-2.243 1.833-3.65 2.44-1.407 0.6-2.883 0.9-4.43 0.9-1.547 0-3.023-0.3-4.43-0.9-1.407-0.607-2.623-1.42-3.65-2.44-1.027-1.027-1.84-2.243-2.44-3.65zM101.31 20.12c-1.18 2.02-1.77 4.227-1.77 6.62 0 2.387 0.59 4.59 1.77 6.61 1.18 2.02 2.777 3.62 4.79 4.8 2.02 1.18 4.227 1.77 6.62 1.77 2.393 0 4.6-0.59 6.62-1.77 2.013-1.18 3.61-2.78 4.79-4.8 1.18-2.02 1.77-4.223 1.77-6.61 0-2.393-0.59-4.6-1.77-6.62-1.18-2.02-2.777-3.62-4.79-4.8-2.02-1.18-4.227-1.77-6.62-1.77-2.393 0-4.6 0.59-6.62 1.77-2.013 1.18-3.61 2.78-4.79 4.8zM99.78 34.23c-1.333-2.293-2-4.79-2-7.49 0-2.707 0.667-5.207 2-7.5 1.333-2.293 3.147-4.107 5.44-5.44 2.3-1.34 4.8-2.01 7.5-2.01 2.7 0 5.197 0.67 7.49 2.01 2.3 1.333 4.117 3.147 5.45 5.44 1.333 2.293 2 4.793 2 7.5 0 2.7-0.667 5.197-2 7.49-1.333 2.293-3.15 4.107-5.45 5.44-2.293 1.34-4.79 2.01-7.49 2.01-2.7 0-5.2-0.67-7.5-2.01-2.293-1.333-4.107-3.147-5.44-5.44zM97.34 20.24c-0.88 2.067-1.32 4.233-1.32 6.5 0 2.26 0.44 4.423 1.32 6.49 0.88 2.067 2.063 3.843 3.55 5.33 1.493 1.493 3.273 2.68 5.34 3.56 2.067 0.873 4.23 1.31 6.49 1.31 2.26 0 4.423-0.437 6.49-1.31 2.067-0.88 3.847-2.067 5.34-3.56 1.487-1.487 2.67-3.263 3.55-5.33 0.88-2.067 1.32-4.23 1.32-6.49 0-2.267-0.44-4.433-1.32-6.5-0.88-2.067-2.063-3.843-3.55-5.33-1.493-1.493-3.273-2.68-5.34-3.56-2.067-0.873-4.23-1.31-6.49-1.31-2.26 0-4.423 0.437-6.49 1.31-2.067 0.88-3.847 2.067-5.34 3.56-1.487 1.487-2.67 3.263-3.55 5.33zM96.74 35.99c-1.653-2.833-2.48-5.917-2.48-9.25 0-3.34 0.827-6.427 2.48-9.26 1.653-2.833 3.897-5.073 6.73-6.72 2.827-1.653 5.91-2.48 9.25-2.48 3.333 0 6.417 0.827 9.25 2.48 2.833 1.647 5.077 3.887 6.73 6.72 1.653 2.833 2.48 5.92 2.48 9.26 0 3.333-0.827 6.417-2.48 9.25-1.653 2.833-3.897 5.073-6.73 6.72-2.833 1.653-5.917 2.48-9.25 2.48-3.34 0-6.423-0.827-9.25-2.48-2.833-1.647-5.077-3.887-6.73-6.72zM94.1 18.89c-1.067 2.493-1.6 5.11-1.6 7.85 0 2.733 0.533 5.347 1.6 7.84 1.067 2.5 2.503 4.653 4.31 6.46 1.807 1.807 3.96 3.243 6.46 4.31 2.5 1.067 5.117 1.6 7.85 1.6 2.733 0 5.35-0.533 7.85-1.6 2.5-1.067 4.653-2.503 6.46-4.31 1.807-1.807 3.243-3.96 4.31-6.46 1.06-2.493 1.59-5.107 1.59-7.84 0-2.74-0.53-5.357-1.59-7.85-1.067-2.5-2.503-4.653-4.31-6.46-1.807-1.807-3.96-3.243-6.46-4.31-2.5-1.067-5.117-1.6-7.85-1.6-2.733 0-5.35 0.533-7.85 1.6-2.5 1.067-4.653 2.503-6.46 4.31-1.807 1.807-3.243 3.96-4.31 6.46zM92.49 35.27c-1.16-2.713-1.74-5.557-1.74-8.53 0-2.98 0.58-5.827 1.74-8.54 1.167-2.707 2.73-5.04 4.69-7 1.96-1.967 4.297-3.53 7.01-4.69 2.707-1.167 5.55-1.75 8.53-1.75 2.98 0 5.823 0.583 8.53 1.75 2.713 1.16 5.05 2.723 7.01 4.69 1.96 1.96 3.523 4.293 4.69 7 1.16 2.713 1.74 5.56 1.74 8.54 0 2.973-0.58 5.817-1.74 8.53-1.167 2.707-2.73 5.04-4.69 7-1.96 1.967-4.297 3.53-7.01 4.69-2.707 1.167-5.55 1.75-8.53 1.75-2.98 0-5.823-0.583-8.53-1.75-2.713-1.16-5.05-2.723-7.01-4.69-1.96-1.96-3.523-4.293-4.69-7zM150.63 6.52v40.43h-1.75v-40.43zM147.12 6.52v40.43h-1.76v-40.43zM143.6 6.52v40.43h-1.75v-40.43zM140.09 6.52v40.43h-1.76v-40.43zM173.8 46.95l-10.32-20.21 10.32-20.22h1.96l-10.33 20.22 10.33 20.21zM169.87 46.95l-10.32-20.21 10.32-20.22h1.96l-10.33 20.22 10.33 20.21zM165.94 46.95l-10.32-20.21 10.32-20.22h1.96l-10.33 20.22 10.33 20.21zM162.01 46.95l-10.35-20.21 10.35-20.22h1.95l-10.35 20.22 10.35 20.21zM204 35.08h-7.42l0.71-1.75h6.01zM205.42 38.6h-10.21l0.69-1.76h8.76zM206.79 42.12h-12.94l0.68-1.76h11.52zM194.6 8.89l-15.03 38.06h-1.91l15.99-40.43h1.91l15.96 40.43h-1.88zM181.45 46.95l13.37-33.89 1.01 2.25-12.5 31.64zM185.23 46.95l11.55-29.25 0.93 2.42-10.58 26.83zM189.01 46.95l9.62-24.41 0.93 2.46-8.67 21.95zM206.88 6.52l16 40.43h-1.91l-15.97-40.43zM201.22 6.52h1.88l15.99 40.43h-1.88zM197.44 6.52h1.88l15.99 40.43h-1.91zM251.54 8.28h-26.37v-1.76h26.37zM251.54 11.79h-26.37v-1.75h26.37zM232.2 15.31h-7.03v-1.76h26.37v1.76h-7.03v31.64h-1.76v-31.64h-1.76v31.64h-1.76v-31.64h-1.75v31.64h-1.76v-31.64h-1.76v31.64h-1.76zM264.31 6.52v40.43h-1.76v-40.43zM260.79 6.52v40.43h-1.76v-40.43zM257.28 6.52v40.43h-1.76v-40.43zM267.82 31.13v7.03h18.7v1.76h-18.7v1.76h18.7v1.75h-18.7v1.76h18.7v1.76h-20.46v-40.43h20.46v1.76h-18.7v1.76h18.7v1.75h-18.7v1.76h18.7v1.76h-18.7v7.03h9.6v1.76h-9.6v1.76h9.6v1.75h-9.6v1.76h9.6v1.76z" fill="#ffffff" fill-rule="nonzero" stroke="none" stroke-width="1" stroke-linecap="butt" stroke-linejoin="miter" stroke-miterlimit="10" stroke-dasharray="" stroke-dashoffset="0" font-family="none" font-weight="none" font-size="none" text-anchor="none" style="mix-blend-mode: normal" data-fill-palette-color="primary" opacity="1"></path></g></svg></g></svg></g></svg></g></svg></g></svg></g><defs></defs></svg><rect width="395.52" height="130.6428751352744" fill="none" stroke="none" visibility="hidden"></rect></g></svg></g></svg>